<svg xmlns="http://www.w3.org/2000/svg" viewBox="0 0 840.09 232.61"><defs><style>.cls-1{fill:#e3ff6c;}</style></defs><g id="Layer_2" data-name="Layer 2"><g id="Layer_1-2" data-name="Layer 1"><path class="cls-1" d="M73.73,25.52c-4.29,1-11.45-3.58-16.18-2.86S50.68,27,46.1,28.81a5.54,5.54,0,0,1-4,.29c-.86,6.59-1.29,12.31-2.58,22.62-1.43,10.74-2.86,16.76-.57,20.77,7.44,12.88.57,18.75,5.29,19.9,5.88,1.43,3,9.31-4.15,12.46s-16.75-2.72-11.17-9c4-4.59,8-7,6.16-11.75-3.15-7.87-6.73-15.6-5.3-25.91s3.58-29.93,2.58-34.37c-2-8.88-2.15-7.44-7.88-7.3a15.15,15.15,0,0,0-2.72.14C20.61,20.37,14.31,24.37,8,22.37,1.28,20.22-3.3,12.78,3,8.62s10.88-5,12.6-3.72a21.34,21.34,0,0,1,3.72,3.44c6.3-1,12.46-.58,15,1.29a12.56,12.56,0,0,1,2.72,2.86C38.94,8.05,43.38,6.19,51,5c7-.85,8.45,1.58,12.18,1.15s9.45-2.86,12.6,4.44S77.88,24.52,73.73,25.52ZM64.85,12.06A36.09,36.09,0,0,0,47.1,14.35c-4.3,1.86-4.44,6.87,2.29,4.15a26.89,26.89,0,0,1,14.32-1.86C67,16.93,69.44,12.78,64.85,12.06Z"/><path class="cls-1" d="M160.64,88.09c-3.58,3.73-9.59,6-15,6.73a19.19,19.19,0,0,1-9,6.88c-12.32,5-21.77-1.15-32.36-6.3-5.3-2.58-7.3-7.59-7.45-12.75-5.15-4.87-11-13.6-8.73-32.93,2.86-23.63,11.74-33.22,27.2-38.09,14.9-4.72,31.93-4.58,41.81,5,2.3-1.72,5.45-2.72,7.59-2.43,2.44.43,4,1.14,5.16,2.58,1.43,1.57,1.14,4.58.86,6.87-.43,4.29-2.58,5.87-4.44,6.3,3.72,8.45,5.15,18.47,5.58,31.36C172,70.48,166.09,82.37,160.64,88.09Zm4-33.79c-1.43-7.16-1.71-11-3.72-12.6s-10.31-3-6.87,4.73c3.43,7.58,6.3,14.89.28,20.19-6.15,5.15-14.17-4.87-19.18-11.32s-11.89-17.75-8.88-24.63,12.6-6.58,14.89-.71,5.15,12.46,7.3,2.58-6.73-13.89-14.32-14.61S116,19.51,107.38,26.38c-6.16,5-11.46,15.89-10.88,29.5.14,4.43.86,10.59,3,14.31.43-.71.72-1.28,1.15-1.86,7-10,22.48-5.72,27.49-1.43s9.74,4.15,16.18,11.46a14,14,0,0,1,3.44,7.87,13.43,13.43,0,0,0,8.73-6C163.08,70.34,166.23,61.46,164.65,54.3Zm-39.95,19c-6.3-6.16-13.6-2.87-17.18,3-3.15,5.44,4.58,11.74,8.45,14.18,5,3.43,15.89,8.45,17.9,2.72C136.3,86,131.15,79.5,124.7,73.35Z"/><path class="cls-1" d="M295.1,43c-4.16,5.44-.72,16.61-2.58,21.62a21.59,21.59,0,0,1-7.45,9.45c-.14,8,2.29,16.18-8.16,25.63-13.46,12.17-17.47-.28-21.19-11.45-4.58-13.61-.14-14.18-5.73-28.64-2.15-5.59-8-3.72-7,1.86s7.73,21.48,7.59,27.35-3.59,13.6-14.75,15.75c-6.45,1.29-12.17-2.29-26.06-30.93-4.87.29-9.45-2.72-10.46-9.16-2-13.32-5.15-22.2-12.17-32.94s-1.72-22.76,6.45-24.91c11.59-3,17.89,5.44,22.19,14.89s9,27.64,5.87,41.24a17.78,17.78,0,0,1-2.72,6C230.38,86.66,236.1,100.26,241,91c3.15-6-1.14-18.33-5.58-24.49s-2.72-19,3-21,14.32-1.14,19.19,14.89c4.87,16.19,6.45,37,15,29.5,5.29-4.58,4.72-10.31,3.86-13.89a16.36,16.36,0,0,1-4.29-2c-10.46-7-11.17-14.61-4.73-27.06,1.72-3.3,3.87-10.89,7.88-16.61a14.89,14.89,0,0,1,3.29-3.44c0-6.73-.29-12-.29-16.47s4,0,5.59,0,5.3-4.58,5.58-.57a123.34,123.34,0,0,1,1,14.75c.72.28,1.58.43,2.44.71C300.68,27.67,299.25,37.55,295.1,43Zm-90.21,1.43C207.18,51.72,208.18,60,211,58s2.3-11.59.15-21.9-9-21-14.46-16.18C191.14,24.8,202.6,37,204.89,44.42Zm74.74-7.16c-5.15,8.16-6.87,14.75-6.73,25.06s7.3,8.88,9.88,1.29-.14-10.31.15-14.18,6.3-4.15,6.72-9.3C290.23,29.53,284.64,29.39,279.63,37.26Z"/><path class="cls-1" d="M346.21,53.73c-2.72-8.88-6.15-6-12.17-2.15l-3.87,2.58c-3.86,3,.43,3.15,2,12.17,1,6-7.88,8.73-11.74,13.46s-2.58,17-2.72,21.19-4.58.57-5.59.57-6.3,2.87-4.72-3c.86-3.3,1.29-11.89,2.29-15.18,1.72-5.73,3.44-6.87,8.88-13.6s.14-10.31-2.44-15.18c-4.72-7.31,5.16-16.47,12.17-25.06s-1.86-15.75,5.87-22,12,2.58,25.06,20.76S372,56.45,362.82,61.17C354.52,65.47,347.36,57.45,346.21,53.73Zm12-12.32c-4-5.15-6.73-10.45-11.31-18.75-4.73-8.45-9.6-4.73-9.45-.43.14,4.15,1.57,5.58-1.72,9-11,11.6-10.31,15.32-.72,12.46,8.74-2.58,12.32-3.73,16.9,4.15S362.82,47.28,358.24,41.41Zm13,59.86c-5.58,4.72-15.46,1.14-15.18-4.3s6.3-4,2.87-16-1.72-15.6,6.73-14.74c4,.43,5.29,4.72,8.87,13.6C378.29,89,377,96.54,371.27,101.27Zm-3-23.2c.15-2-4-3.72-4,1.15,0,3.15,2.72,9,1.44,11.74-1.72,3.58,1.43,5.44,3.58,1.29S367.69,85.52,368.26,78.07Z"/><path class="cls-1" d="M387.88,74.35c2.86-9.45-1-17.61,0-32.94.71-11-3.87-18.18-2.29-29.35,1.29-9.45,10-3,17.61-2.15s16.9-7,28.35-.86C447.3,17.5,444,34.68,440.14,42.7s-15.75,10.46-21.48,5.16c-6.73-6.16-10.31,2.86-5.87,4.44s14.61,15.6,18,20.76,10.46,22,11.89,28.35c.71,3.29-2.29,1.86-3.58,2.15s-3.29,3-4.15,1a107.41,107.41,0,0,1-4.16-10.45c-1-3.44-4-6.88-4.29-.29s-3.58,10.6-7.88,8.74-11-5-11.74-16.47,7.73-9.88,9.45-8.16,5.3,2.29,5,.57a32.3,32.3,0,0,0-9.88-18.19c-2.29-2.14-7.87-2.43-7.87-7.15,0-3.73-8.59-5.88-8.16,6.3.14,2.57,1.86,10.88,0,17.32-3.15,10.88,1.43,18.33,1.57,22,.15,8-3.15,3.3-4.87,3.3S386.59,107,386.3,99C386.16,93.82,384.87,84.23,387.88,74.35ZM394,32.54c1.15,7,3.87,11.59,7.74,11.74s8.87-6.45,13.17-6.45,4.87,6.59,11.88,5.88,7.74-6.73,7.74-10.89-3.73-6.15-5.3-3.29-4.15,5.58-8.59,5.44-14.89-3-13.18-8.73c3.15-10.31,11.32-4.59,17.76-2.87s4.87-6.58,1.72-8.16c-7-3.58-16.33,2.72-22.05,2-6.59-.86-10.31-3.16-10.74,2.14C393.89,23.66,393.32,28.1,394,32.54Zm22.2,61.14c-.29,3.43,3.87,3,3.87-.43s-.86-5-2.44-7.59-6.16-3.29-3.58,1.72C415.51,90.24,416.52,90.24,416.23,93.68Z"/><path class="cls-1" d="M518.75,90.38c-1.72,2-5,2.87-9,4-.86,4.59-3.15,8-9.31,8.17-8.73.14-21.9.28-30.93.71-5.29.29-14.74-4-14.17-13.46.57-10.45-2.58-18.33-3-27.63s3.87-10,2.72-14.32c-2.15-8.31-4.29-11.17-2.43-46-.15-4,2.72-.43,4.44-.28s4.29-2.87,4.29.14c0,6.44.72,3.72,7,3.44S496.41,11.92,505.86,26s15,28.49,16,39.09S522,86.66,518.75,90.38Zm-16.47-3c-.28-7.16-3.58-9.17-7.58-7.59s-9.74,3.58-16.47,3c-7.73-.72-12.17-9.74-13-23.06-.43-6.16-6.16-5.15-5.73-.14s2.43,18.33,3.58,25.34-.72,12.75,9.74,10.46c10.88-2.44,15.32,2,20.9.57S502.57,94.54,502.28,87.38ZM514.6,66c-2.58-16.75-6.87-24.34-9.74-26.92s-5.58-3.15-5.73,1.72,2.44,11.74-.71,16.33-8,7-15.32-.58-8.88-15-5.87-21.33,10.31-1,12.74-.43,5-5.59,1.58-9.31-14.75-10-22.77-10-8.31,8.16-8.59,13.17a103.86,103.86,0,0,0,.14,13.75c.29,3,1.72,5.87,4.73,6s6.73,4.3,6.58,13.46,4.73,14.61,12,14,11.74-8.59,21.34-4.87c7.58,3,6.44,7.88,5.58,13.18C514.17,82.51,516.46,77.93,514.6,66Z"/><path class="cls-1" d="M597.22,53.73c-2.73-8.88-6.16-6-12.18-2.15l-3.86,2.58c-3.87,3,.43,3.15,2,12.17,1,6-7.87,8.73-11.74,13.46s-2.58,17-2.72,21.19-4.58.57-5.58.57-6.3,2.87-4.73-3c.86-3.3,1.29-11.89,2.29-15.18,1.72-5.73,3.44-6.87,8.88-13.6s.14-10.31-2.43-15.18c-4.73-7.31,5.15-16.47,12.17-25.06s-1.86-15.75,5.87-22,12,2.58,25.06,20.76S623,56.45,613.83,61.17C605.52,65.47,598.36,57.45,597.22,53.73Zm12-12.32c-4-5.15-6.73-10.45-11.31-18.75s-9.59-4.73-9.45-.43c.14,4.15,1.58,5.58-1.72,9-11,11.6-10.31,15.32-.71,12.46,8.73-2.58,12.31-3.73,16.89,4.15S613.83,47.28,609.24,41.41Zm13,59.86c-5.58,4.72-15.46,1.14-15.17-4.3s6.3-4,2.86-16-1.72-15.6,6.73-14.74c4,.43,5.3,4.72,8.88,13.6C629.29,89,628,96.54,622.27,101.27Zm-3-23.2c.14-2-4-3.72-4,1.15,0,3.15,2.72,9,1.43,11.74-1.72,3.58,1.43,5.44,3.58,1.29S618.69,85.52,619.27,78.07Z"/><path class="cls-1" d="M118,165.32c-.72,12.32-9.6,15.9-10.46,9.74-2.72-19.48-9.45-15.9-7.59-9,1.72,6.3,3.15,23.91,2.58,36.8-.57,12.45-6.16,24.2-14.17,24.34s-15-7.73-14.75-17.61c.14-6,.71-16.33-5.87-30.65s-.58-24,1.14-32.36-12.31-1-11.45,8.45c.86,9.6,6.44,38.66,11.17,43.82,4.58,4.87,5.58,12.74-1.29,19.9-4.44,4.58-12.32,9-22.2,13.17-5.15,2.15-10.45-1-12.6-4.15-3.15-4.58-4.87-13.17,5.73-17.47,5-2,4.72-9,10.17-13.17,14-10.6-3.73-27.35-2.44-44,1.43-19.33,16.18-21.19,21.34-20.76S82.18,138,78,149.71s-2.87,18,1.57,27.64,3.87,19.19,2.58,27.63c-1.29,8.17,6.87,12.46,10,6,2.87-5.87,2.72-18,0-34.22-2.86-17.47-5.15-25.92-8.59-33.08-1.86-3.87,3.58-2.15,5.58-3s3.3-5.87,7.16,8.45c2,7.45,5.88,2.86,3.58-3.43s-2.29-13.18,8.17-15S119.55,138.12,118,165.32ZM63.56,206c-1.57-3.15-4.72-6.3-10-2.44S49.82,210.71,43.23,214c-5.44,2.72-5.87,5.44-5.44,7.44s1.43,4.15,7.45,1.72c3.58-1.43,15.6-5.58,16.89-8S65,209,63.56,206Z"/><path class="cls-1" d="M152.48,146.13c-12-2-18.75,9.17-17.47,15.18,1.44,7,5.73,12.17,9.31,9.45s3.29-9.16,15-5.3,6.3,11.6,4,13-.29,3.86,1,4,3.15,5.45-2.87,6.88-16.18-1.72-20.47,2.15-4,6.87-4.58,9,1.57,3.58,3.15,1.14,8.87-4,11.17,2.58-.86,11.31-4.87,13.75-4.58.57-6.3-.58-3.3,2.29-1.72,4.3,2.72,1.14,12,1.86,24.05-4.87,25.77-7.3.86-5.44,4.58-6.45c3.15-.86,2.72,3.44,3.15,4.44s4.16,1.72,3.87,4.15-3,3-8.31,5.88a66.26,66.26,0,0,1-27.35,7.15c-6.15.29-17.75,0-21.33-3.86-5.16-5.44-3.72-12-3.44-19.19s1.29-18,5.87-22.62,9.45-1.72,9.6-3.87c.14-1.72-11-2.43-14-10.16s-5.44-23.2,5.3-30.79c4.73-3.29,14-9.88,27.49-4.15,5.16-4,12.61-7.74,18.48-2.15,4.15,4,4.58,2.72,9.45,8.45s1.43,12.45-3,15.32c-4.15,2.72-13.32-4.44-16.9-5.59s-13.74,1.58-16.89-1.57C151.05,150.14,151.48,148.28,152.48,146.13Zm-11.16,62.15c.14,7.44,4.72,3.43,3.72-.43C144.18,204.7,141.46,204.56,141.32,208.28Zm20.33-62.86c1.43,2,4.29-.86,9.3,2s8.6,2.44,10.17-.57-2.86-4.87-7.44-7.3C167.09,136.11,160.22,143.27,161.65,145.42Z"/><path class="cls-1" d="M310.56,169.33c-4.15,5.44-.71,16.61-2.57,21.62a21.61,21.61,0,0,1-7.45,9.45c-.14,8,2.29,16.18-8.16,25.63-13.46,12.17-17.47-.28-21.19-11.45-4.59-13.6-.15-14.18-5.73-28.64-2.15-5.58-8-3.72-7,1.86s7.73,21.48,7.59,27.35-3.58,13.6-14.75,15.75c-6.44,1.29-12.17-2.29-26.06-30.93-4.87.29-9.45-2.72-10.45-9.16-2-13.32-5.15-22.19-12.17-32.93S200.88,135.11,209,133c11.6-3,17.9,5.44,22.2,14.89s9,27.64,5.87,41.24a18,18,0,0,1-2.72,6c11.45,17.9,17.18,31.51,22.05,22.2,3.15-6-1.15-18.33-5.59-24.49s-2.72-19,3-21,14.32-1.15,19.19,14.89,6.44,36.94,15,29.49c5.3-4.58,4.73-10.31,3.87-13.89a16.41,16.41,0,0,1-4.3-2c-10.45-7-11.17-14.61-4.72-27.06,1.72-3.3,3.86-10.89,7.87-16.61a15.34,15.34,0,0,1,3.3-3.44c0-6.73-.29-12-.29-16.47s4,0,5.59,0,5.29-4.58,5.58-.57a125.64,125.64,0,0,1,1,14.75c.72.29,1.58.43,2.44.72C316.15,154,314.72,163.89,310.56,169.33Zm-90.21,1.43c2.3,7.31,3.3,15.61,6.16,13.61s2.29-11.6.14-21.91-9-21.05-14.46-16.18S218.06,163.32,220.35,170.76Zm74.75-7.16c-5.16,8.17-6.87,14.75-6.73,25.06s7.3,8.88,9.88,1.29-.14-10.31.14-14.18,6.3-4.15,6.73-9.3C305.69,155.87,300.11,155.73,295.1,163.6Z"/><path class="cls-1" d="M390.32,180.07c-2.73-8.88-6.16-6-12.18-2.15l-3.86,2.58c-3.87,3,.43,3.15,2,12.17,1,6-7.87,8.74-11.74,13.46-3.86,4.87-2.58,17-2.72,21.19s-4.58.57-5.58.57-6.3,2.87-4.73-3c.86-3.3,1.29-11.89,2.29-15.18,1.72-5.73,3.44-6.87,8.88-13.6s.14-10.31-2.43-15.18c-4.73-7.3,5.15-16.47,12.17-25.06s-1.86-15.75,5.87-22.05,12,2.58,25.06,20.76,12.74,28.21,3.58,32.94C398.62,191.81,391.46,183.79,390.32,180.07Zm12-12.31c-4-5.16-6.73-10.46-11.31-18.76s-9.59-4.73-9.45-.43,1.58,5.58-1.72,9c-11,11.6-10.31,15.32-.71,12.46,8.73-2.58,12.31-3.73,16.89,4.15S406.93,173.63,402.34,167.76Zm13,59.85c-5.58,4.72-15.46,1.14-15.17-4.3s6.3-4,2.86-16-1.72-15.61,6.73-14.75c4,.43,5.3,4.72,8.88,13.6C422.39,215.29,421.1,222.88,415.37,227.61Zm-3-23.2c.14-2-4-3.72-4,1.15,0,3.15,2.72,9,1.43,11.74-1.72,3.58,1.43,5.44,3.58,1.29S411.79,211.86,412.37,204.41Z"/><path class="cls-1" d="M502.29,199.69c-1.15,9.3-16.18,23.34-26.21,27.78s-23.19-.15-26.77-6.16a5.24,5.24,0,0,1-.58-1.29c-6-2.29-10.16-5.16-15.89-12.89-4.58-6.15-3.87-22.91.43-33.65-6.44-5.44-1.43-16,4.15-23.34,6-7.87,16.9-16.89,25.63-19,10.17-2.43,19.76,0,26.06,2.15,16.33,5.58,9.31,21.91-3.29,18.33s-21.62-2.44-31.07,9.45c-6.88,8.59-9.6,14.46-14,15l-3,8.88a24.89,24.89,0,0,0,2,19.19c2.29,3.86,6.3,6.3,9.17,7.73,1.43-3.3,4.58-6.16,9.3-7.73,8.88-2.87,15.61,2.57,19.34-3.3s-1.72-6.3-5.59-2.29-18.47.86-17-8.45c2-13.31,7.3-22.91,18.33-22.91,5.87,0,6.87,9.6,6.16,13s3.86,2.72,3.86,1a15.92,15.92,0,0,1,2-8.88c2.15-4,10.45-5.59,14.17,2.29S503.43,190.52,502.29,199.69Zm-58-36.37c2.57-4,6.87-10.89,13.88-15.32,5.45-3.44,14.18-5.16,20.19-4,6.73,1.29,10.74-3.87,1.29-5.59s-17.47,0-24.05,4c-5.73,3.44-13.46,12.6-16.47,17.9C435.27,167.18,440.86,168.76,444.3,163.32Zm51,23.19c-1-7.87-6.16-6-5.73.29s-1.43,13.89-4.87,18.18-8.3,5.3-20.61,4.44c-5-.28-8.17,4.59-8.17,7.88s6.59,7.73,16.47,5.58c5.16-1.14,14-9.3,17.9-14.75C494.12,202.84,496.56,196,495.27,186.51Z"/><path class="cls-1" d="M540.66,146.13c-12-2-18.76,9.17-17.47,15.18,1.43,7,5.73,12.17,9.31,9.45s3.29-9.16,15-5.3,6.3,11.6,4,13-.28,3.86,1,4,3.14,5.45-2.87,6.88-16.18-1.72-20.47,2.15-4,6.87-4.59,9,1.58,3.58,3.15,1.14,8.88-4,11.17,2.58-.86,11.31-4.87,13.75-4.58.57-6.3-.58-3.29,2.29-1.71,4.3,2.72,1.14,12,1.86,24.06-4.87,25.78-7.3.86-5.44,4.58-6.45c3.15-.86,2.72,3.44,3.15,4.44s4.15,1.72,3.87,4.15-3,3-8.31,5.88a66.26,66.26,0,0,1-27.35,7.15c-6.16.29-17.75,0-21.33-3.86-5.16-5.44-3.73-12-3.44-19.19s1.29-18,5.87-22.62,9.45-1.72,9.59-3.87c.15-1.72-11-2.43-14-10.16s-5.44-23.2,5.3-30.79c4.72-3.29,14-9.88,27.49-4.15,5.16-4,12.6-7.74,18.47-2.15,4.16,4,4.59,2.72,9.45,8.45s1.44,12.45-3,15.32c-4.16,2.72-13.32-4.44-16.9-5.59s-13.75,1.58-16.9-1.57C539.23,150.14,539.66,148.28,540.66,146.13Zm-11.17,62.15c.14,7.44,4.73,3.43,3.72-.43C532.36,204.7,529.63,204.56,529.49,208.28Zm20.33-62.86c1.44,2,4.3-.86,9.31,2s8.59,2.44,10.17-.57-2.87-4.87-7.45-7.3C555.27,136.11,548.39,143.27,549.82,145.42Z"/><path class="cls-1" d="M676.12,165.32c-.72,12.32-9.6,15.9-10.46,9.74-2.72-19.48-9.45-15.9-7.59-9,1.72,6.3,3.16,23.91,2.58,36.8-.57,12.45-6.16,24.2-14.17,24.34s-15-7.73-14.75-17.61c.14-6,.71-16.33-5.87-30.65s-.58-24,1.14-32.36-12.31-1-11.45,8.45c.86,9.6,6.44,38.66,11.17,43.82,4.58,4.87,5.58,12.74-1.29,19.9-4.44,4.58-12.32,9-22.2,13.17-5.15,2.15-10.45-1-12.6-4.15-3.15-4.58-4.87-13.17,5.73-17.47,5-2,4.73-9,10.17-13.17,14-10.6-3.73-27.35-2.44-44,1.43-19.33,16.18-21.19,21.34-20.76s14.89,5.58,10.74,17.32-2.87,18,1.57,27.64,3.87,19.19,2.58,27.63c-1.29,8.17,6.87,12.46,10,6,2.87-5.87,2.72-18,0-34.22-2.86-17.47-5.15-25.92-8.59-33.08-1.86-3.87,3.58-2.15,5.59-3s3.29-5.87,7.15,8.45c2,7.45,5.88,2.86,3.58-3.43s-2.29-13.18,8.17-15S677.69,138.12,676.12,165.32ZM621.7,206c-1.57-3.15-4.72-6.3-10-2.44S608,210.71,601.37,214c-5.44,2.72-5.87,5.44-5.44,7.44s1.43,4.15,7.45,1.72c3.58-1.43,15.6-5.58,16.89-8S623.14,209,621.7,206Z"/><path class="cls-1" d="M754.73,210.57c3.58-2.72,3.15,2.15,3.72,2.58,1.14.86,5,.86,1.43,4.72s-17.18,12.89-33.51,12.89c-15,0-27.06-7.88-31.93-13.46-4.72-5.3-13.17-24.2-13.74-31.65-1.43-19.47.71-24.91,7.87-37.94s29.93-18.62,41.67-17.47a24.94,24.94,0,0,1,21.33,17.61c2.15,7.59-3.57,3.15-5.58,3.3s-4.87,5.29-5.3-2.58-7.87-10.45-14-9.45-4.44,6.3.86,6.73,4.58,8.88.86,9-6.73-1-15.32,6.73-12.32-4.15-8-8.74,3.29-10.16-6.73-3.86-9.16,23.48-6.3,37.37c3.72,18.19,11.88,27.78,21.62,30.07,14.89,3.58,7.3-10.88-1.57-17.18s-15.47-21.19-.86-25.06c7.58-2,23.48-1,30.35,4.58,9.6,7.88,7.73,16.9-3.43,21.91-12.6,5.73-9.17,18.9.28,20.19C744.56,221.74,751.15,213.29,754.73,210.57Zm-41.39-20.19c5.16,6.73,10.6,13.32,19,5,4.15-4.15,8.3-5.73,4.58-9.74s-10.88-4.86-21.19-4.86C709.76,180.79,710.34,186.37,713.34,190.38Z"/><path class="cls-1" d="M839.35,148.85c-4,11.89-4.87,29.22-5,39.67s-.72,29.21-10.31,36.65-26.78,6.88-34.51,2.87-10.31-12.6-12.32-19.19,2-2.86,3.3-3.29,3.72-4.3,4.87,1.14,2.43,12.89,10.74,15c10.59,2.72,17.32-.15,21.47-3.15a22,22,0,0,0,7-10.46c.86-3.72-4.44-4.72-8.31,1.58s-8.73,10.88-15.46,7-4.44-8-1.58-10.6a13.67,13.67,0,0,0,4.44-11.45c-.43-4.73,5-12.46,10-8s3.86,10.74,8,10.45c4-.29,5-.43,5.29-6.3a277.51,277.51,0,0,1,4.87-39.23c1.72-8.88-3.58-6.59-4.44-1.44-1.57,9.45-2.29,17-8.59,20.77v1c-.57,10-8,9.59-15.61,8.45-7.44-1.15-11.74-8.31-16.75-13.32a45,45,0,0,1-10.31-16c-4.58-11.88-4.72-15.32.72-17.61,5.73-2.43,11.31,4.87,14.46,9.45s6.3,9.88,17.33,15.18a18.35,18.35,0,0,1,7.87,6.73c3.29-2.44,3.58-11.31,5.58-21.19C824.74,130.38,844.07,134.68,839.35,148.85Zm-32.94,17.33C802.69,163.46,800,163,793.1,156c-4.3-4.43-7-11.88-10.31-9.45-1.58,1.15.57,5.16,3.72,10,3.58,5.58,10.45,10.88,13.46,12.74C805.13,172.48,811.71,170.05,806.41,166.18Z"/></g></g></svg>